<svg xmlns="http://www.w3.org/2000/svg" viewBox="0 0 488.98 62.11"><defs><style>.cls-1{fill:#231916;}</style></defs><g id="Layer_2" data-name="Layer 2"><g id="レイヤー_1" data-name="レイヤー 1"><polygon class="cls-1" points="11.74 35.98 45.03 35.98 45.03 25.7 11.74 25.7 11.74 12.95 48.89 12.95 48.89 2.33 0 2.33 0 59.78 49.32 59.78 49.32 49.16 11.74 49.16 11.74 35.98"/><polygon class="cls-1" points="451.4 35.98 484.69 35.98 484.69 25.7 451.4 25.7 451.4 12.95 488.55 12.95 488.55 2.33 439.66 2.33 439.66 59.78 488.98 59.78 488.98 49.16 451.4 49.16 451.4 35.98"/><polygon class="cls-1" points="126.04 41.6 94.33 2.33 82.93 2.33 82.93 59.78 94.5 59.78 94.5 19.31 127.15 59.78 137.6 59.78 137.6 2.33 126.04 2.33 126.04 41.6"/><path class="cls-1" d="M283.75,0A31.06,31.06,0,1,0,314.8,31.05,31.06,31.06,0,0,0,283.75,0Zm0,51a20,20,0,1,1,20-20A20,20,0,0,1,283.75,51Z"/><path class="cls-1" d="M216.49,41.88c-2.84,4.64-7,9.5-15.86,9.5-10.88,0-19.62-8.8-19.62-20.32s8.62-20.34,19.5-20.34c8.09,0,12.18,4.68,15.43,9.36l9.33-5.59A28.66,28.66,0,0,0,200.51,0a30.7,30.7,0,0,0-31,31.06,30.79,30.79,0,0,0,31.17,31.05A29,29,0,0,0,226,47Z"/><path class="cls-1" d="M404.05,29.87C403.44,12.44,390,2.29,372,2.25c-11.1,0-21.61,0-21.61,0V59.69c15.43,0,13.13.39,24.42,0C392.79,59.07,404.67,47.3,404.05,29.87ZM373.13,49.8c-3.77,0-7.55,0-11-.07V12.34l11,0c12.77,0,19,6.4,19,17.92C392.13,42.37,385.91,49.8,373.13,49.8Z"/></g></g></svg>